<?xml version="1.0" encoding="UTF-8" standalone="no"?>
<svg
   xmlns:dc="http://purl.org/dc/elements/1.1/"
   xmlns:cc="http://creativecommons.org/ns#"
   xmlns:rdf="http://www.w3.org/1999/02/22-rdf-syntax-ns#"
   xmlns:svg="http://www.w3.org/2000/svg"
   xmlns="http://www.w3.org/2000/svg"
   xmlns:sodipodi="http://sodipodi.sourceforge.net/DTD/sodipodi-0.dtd"
   xmlns:inkscape="http://www.inkscape.org/namespaces/inkscape"
   sodipodi:docname="logo.svg"
   inkscape:version="1.0 (4035a4fb49, 2020-05-01)"
   id="svg8"
   version="1.1"
   viewBox="0 0 34.841305 34.310921"
   height="34.310921mm"
   width="34.841305mm">
  <defs
     id="defs2">
    <clipPath
       id="clipPath26"
       clipPathUnits="userSpaceOnUse">
      <rect
         y="43.089287"
         x="253.99998"
         height="110.36904"
         width="216.20239"
         id="rect28"
         style="fill:#aacbf8;stroke-width:0.264583" />
    </clipPath>
  </defs>
  <sodipodi:namedview
     fit-margin-bottom="0"
     fit-margin-right="0"
     fit-margin-left="0"
     fit-margin-top="0"
     inkscape:window-maximized="1"
     inkscape:window-y="-9"
     inkscape:window-x="-9"
     inkscape:window-height="1001"
     inkscape:window-width="1920"
     showborder="false"
     inkscape:showpageshadow="true"
     borderlayer="false"
     showgrid="false"
     inkscape:document-rotation="0"
     inkscape:current-layer="layer1"
     inkscape:document-units="mm"
     inkscape:cy="163.16533"
     inkscape:cx="209.52767"
     inkscape:zoom="0.49497475"
     inkscape:pageshadow="2"
     inkscape:pageopacity="0.0"
     borderopacity="1.0"
     bordercolor="#666666"
     pagecolor="#ffffff"
     id="base" />
  <metadata
     id="metadata5">
    <rdf:RDF>
      <cc:Work
         rdf:about="">
        <dc:format>image/svg+xml</dc:format>
        <dc:type
           rdf:resource="http://purl.org/dc/dcmitype/StillImage" />
        <dc:title></dc:title>
      </cc:Work>
    </rdf:RDF>
  </metadata>
  <g
     transform="translate(-62.930322,-174.96471)"
     id="layer1"
     inkscape:groupmode="layer"
     inkscape:label="Layer 1">
    <path
       sodipodi:nodetypes="sccscssssssssssssccsssssssssssscsssssscssssssssssssssssssssssssssssssss"
       id="path106"
       d="m 77.266418,208.98351 c -3.72323,-0.86277 -6.5035,-2.3627 -8.99345,-4.85189 -2.042848,-1.84417 -2.993628,-3.58565 -3.94763,-5.68118 -2.44734,-5.35884 -1.63149,-11.87541 2.10859,-16.84237 3.15783,-4.1937 8.18701,-6.63408 13.69068,-6.64333 5.15254,-0.009 9.32187,1.72496 13.02401,5.41539 3.03843,3.02882 4.62301,7.1281 4.62301,11.95966 0,7.67537 -4.38762,13.79535 -11.63036,16.22236 -2.20134,0.73766 -6.60717,0.94684 -8.87485,0.42136 z m 7.68485,-1.31153 c 2.73164,-0.72746 4.90647,-2.02991 7.03844,-4.21513 2.39234,-2.45209 3.46208,-4.33148 4.18722,-7.35636 0.93054,-3.88168 0.5354,-7.43969 -1.23111,-11.08549 -1.20296,-2.48273 -4.78764,-6.17252 -7.02495,-7.23094 -3.82219,-1.80818 -8.07929,-2.23955 -11.99368,-1.21532 -2.7648,0.72344 -4.89148,1.88311 -6.90718,3.76644 -2.1002,1.9623 -3.26851,3.74264 -4.19963,6.39961 -0.63384,1.80868 -0.74085,2.5209 -0.73549,4.89479 0.08159,4.02081 0.953937,6.23889 2.79133,9.21072 0.64482,1.09159 3.57434,3.87286 5.09481,4.83698 1.3478,0.85463 2.52418,1.3533 4.63393,1.96432 1.58994,0.46048 6.66196,0.47894 8.34631,0.0304 z m 0.9587,-1.68131 c -0.13561,-0.25875 -0.33286,-0.87205 -0.43833,-1.36288 -0.18477,-0.85987 -0.10527,-0.97566 2.17982,-3.175 1.30437,-1.25542 2.4423,-2.52071 2.52873,-2.81175 0.0864,-0.29104 0.33959,-1.96281 0.56257,-3.71505 0.22298,-1.75224 0.4821,-3.5977 0.57583,-4.10104 0.34978,-1.87825 -0.61763,-0.18978 -1.59143,2.77763 -1.03625,3.15768 -1.10489,3.58848 -0.64508,4.04829 0.23199,0.23199 0.21595,0.4158 -0.0661,0.75777 -0.57385,0.69564 -3.49172,2.75763 -3.6614,2.58742 -0.14442,-0.14486 0.0901,-0.36268 2.20926,-2.05187 2.16769,-1.72786 0.58684,-1.64421 -3.02134,0.15987 -2.2395,1.11975 -2.8634,1.55984 -3.21798,2.26989 -0.63072,1.26303 -0.65773,1.26483 -1.2601,0.0841 -0.48036,-0.94159 -0.90004,-1.24785 -3.47962,-2.53918 -2.92522,-1.46437 -3.96216,-1.76431 -3.93334,-1.13773 0.008,0.18191 0.77879,0.91961 1.71204,1.63935 0.93326,0.71975 1.65407,1.35138 1.60182,1.40363 -0.16286,0.16286 -3.3504,-2.12408 -3.74422,-2.68634 -0.2468,-0.35235 -0.28468,-0.62253 -0.11156,-0.79565 0.39804,-0.39804 0.31752,-1.20598 -0.27962,-2.80587 -0.29796,-0.79831 -0.79271,-2.20093 -1.09944,-3.11693 -0.86539,-2.58438 -1.19169,-1.74251 -0.66883,1.72564 0.23634,1.56763 0.50732,3.44555 0.60219,4.17315 0.16107,1.23535 0.33714,1.48811 2.65995,3.81857 1.3681,1.37261 2.48746,2.63477 2.48746,2.80479 0,0.73809 -0.61452,1.9756 -0.98103,1.9756 -0.79604,0 -3.48259,-1.65662 -4.87732,-3.00752 -3.55362,-3.44196 -5.19495,-7.80085 -4.71651,-12.52568 0.37159,-3.66964 1.85829,-6.695 4.53592,-9.23038 1.58822,-1.50385 2.55879,-2.1281 4.64868,-2.9899 6.58607,-2.71587 14.53388,-0.45791 18.55807,5.27234 3.65381,5.20283 3.80619,12.03241 0.38436,17.22642 -1.4232,2.16028 -3.02631,3.59532 -5.43419,4.86445 -1.63407,0.86128 -1.79192,0.89754 -2.01922,0.46386 z m 0.0745,-11.29158 c 0.5625,-1.53612 2.2622,-10.278 2.2622,-11.6349 0,-2.20948 -2.03216,-2.92002 -5.35533,-1.87248 -1.59955,0.50421 -1.58075,0.50653 -4.43426,-0.54794 -1.39733,-0.51637 -3.22898,-0.39929 -3.94911,0.25242 -0.26844,0.24293 -0.56184,0.81057 -0.65201,1.26142 -0.28964,1.4482 1.67588,11.51836 2.51869,12.90424 0.80772,1.32818 2.13028,0.92442 2.64959,-0.80889 0.3465,-1.15652 1.06914,-1.82963 1.96425,-1.82963 0.71791,0 1.26531,0.61293 1.92781,2.1586 0.29057,0.6779 0.73794,1.34987 0.99416,1.49326 0.75013,0.41979 1.63022,-0.16415 2.07401,-1.3761 z"
       style="fill:#000000;stroke-width:0.264583" />
  </g>
</svg>
